<svg data-name="レイヤー 2" xmlns="http://www.w3.org/2000/svg" viewBox="0 0 53.46 39.16"><g data-name="レイヤー 1"><path d="M16.79 7.61h-6.22l2.38 6.16c.17.35.23.7.23 1.05 0 .52-.23.93-.99 1.1l-10.58 1.8c-1.05.12-1.63-.46-1.63-1.63C0 13.54.35 7.96 3.14 5.81 8.02 2.03 14.41 0 26.73 0s18.71 2.03 23.59 5.81c2.79 2.15 3.14 7.73 3.14 10.29 0 1.16-.58 1.74-1.63 1.63l-10.58-1.8c-.75-.17-.99-.58-.99-1.1 0-.35.06-.7.23-1.05l2.38-6.16h-6.22v3.72c0 4.07 2.62 7.09 6.92 11.27 4.01 3.89 5.35 8.72 5.35 13.83 0 1.86-.7 2.73-2.67 2.73H7.21c-1.98 0-2.67-.87-2.67-2.73 0-5.11 1.34-9.94 5.35-13.83 4.3-4.18 6.92-7.21 6.92-11.27V7.62zm19.7 18.59c0-5.49-4.5-9.9-10.03-9.76-5.1.13-9.36 4.39-9.49 9.49-.15 5.53 4.26 10.03 9.76 10.03s9.76-4.47 9.76-9.76zM31.67 7.61h-9.88v5.58h9.88V7.61z" fill="#5a3719" data-name="問い合わせ"/></g></svg>