<svg id="_レイヤー_2" data-name="レイヤー 2" xmlns="http://www.w3.org/2000/svg" viewBox="0 0 39.11 25.94"><defs><style>.cls-1{fill:#efc3d8}.cls-4,.cls-5{fill:#fff;stroke:#5a3719;stroke-width:1.37px}.cls-5{fill:none}</style></defs><g id="_レイヤー_1-2" data-name="レイヤー 1"><g id="FV"><path class="cls-1" d="M8.73 5.14l-2.38 3.4-2.23-1.39-.16-2.02 1.73-.89 3.04.9z"/><path class="cls-4" d="M1.03 3.78a4.14 4.14 0 014-2.72c1.46.13 2.81.84 3.73 1.98a1.292 1.292 0 01-1.2 1.91c-.62-.09-1.42-.96-2.47-.96-.95.07-1.67.9-1.6 1.86 0 .13.03.26.07.38.23 1.07 1.36 1.29 2.05 1.99a1.017 1.017 0 01-.49 1.8c-1.29.34-2.92-.97-3.6-1.95a4.374 4.374 0 01-.5-4.29zm33.68 8.24c.21.51.8.74 1.3.53.42-.18.67-.62.6-1.07-.35-.93-.75-1.84-1.2-2.72.98-.41 1.84-1.08 2.49-1.92.8-1.44.69-3.21-.28-4.53A3.14 3.14 0 0033.75.9a4.035 4.035 0 00-2.89 2.67c-.15 1.29 3.02 7 3.86 8.46z"/><path class="cls-4" d="M5.29 14.91C4.72 9.4 7.05 4.12 12.81 2.26 18.22.53 24.87 1.16 29.3 4.42c4.98 3.67 5.29 11.12 2.22 16.46-2.38 4.17-7.32 4.47-12.23 4.36-9.8 0-13.39-4.92-14-10.33z"/><path d="M33.21 4.26c0 .66.57 2.1 1.29 2.23 1.39.25 2-2.23 1.29-3.07-.65-.58-1.64-.53-2.22.11-.03.03-.06.07-.09.1-.15.17-.25.39-.27.62z" stroke="#5a3719" stroke-width="1.37" fill="#efc3d8"/><path class="cls-1" d="M18.94 15.91L17.7 17.2l-1.39.68.9 1.24 1.81.95 1.75-.95.83-1.33-1.49-.55-1.17-1.33z"/><path d="M13.92 9.22c-1.45.37-1.63 3.22.49 2.16 1.74-.89.96-2.53-.49-2.16zm11.84 1.29c.19-1.15-1.7-1.96-2.34-1.07-.83 1.18 1.98 3.11 2.34 1.07zm-8.36 2.6c.12-.56 1.72-.46 2.08-.44.72.08 1.48.28.97 1.21-.23.43-.85 1.12-1.29 1.14s-1.86-1.33-1.76-1.91z" fill="#5a3719"/><path class="cls-5" d="M19.24 14.5c-.21 1.47.62 2.89 2 3.43 1.36.42 2.81-.35 3.22-1.72.05-.15.08-.31.1-.46m-5.53-1.67c-.44 2.21-.79 3.14-2.29 3.76-1.29.52-2.18-.26-2.44-1.56"/><path class="cls-5" d="M16.34 17.56a3.425 3.425 0 002.67 2.16c1.21-.16 2.21-1 2.58-2.16"/></g></g></svg>