<svg id="_レイヤー_2" data-name="レイヤー 2" xmlns="http://www.w3.org/2000/svg" viewBox="0 0 153.81 25.94"><defs><style>.cls-1{fill:#efc3d8}.cls-3{fill:#5a3719}.cls-4,.cls-5{fill:#fff;stroke:#5a3719;stroke-width:1.37px}.cls-5{fill:none}</style></defs><g id="_レイヤー_1-2" data-name="レイヤー 1"><g id="FV"><path class="cls-3" d="M136.8 23.95v-.01l-.02.01h.02z"/><path class="cls-3" d="M132.61 15.91a2.223 2.223 0 01-2.07-2.38c0-.11.02-.22.05-.33L134.63 2h19.18c.27 16.3-3.98 21.42-17.01 21.95l-3.58-4.83h2.58c9.32 0 12.59-3.36 12.74-12.34h-10.33l-2.22 6.46a3.545 3.545 0 01-3.38 2.67z"/><circle class="cls-3" cx="94.77" cy="2.9" r="2.22"/><path class="cls-3" d="M102.74 2.89c.03 1.23-.95 2.26-2.18 2.28-1.23.03-2.26-.95-2.28-2.18-.03-1.23.95-2.26 2.18-2.28a2.21 2.21 0 012.28 2.16v.03zm9.82 6.96c0 1.6-1.3 2.89-2.89 2.89-1.6 0-2.89-1.3-2.89-2.89 0-1.6 1.3-2.89 2.89-2.89h.01a2.88 2.88 0 012.88 2.88v.01zm6.88 0c0 1.6-1.3 2.89-2.89 2.89-1.6 0-2.89-1.3-2.89-2.89 0-1.6 1.3-2.89 2.89-2.89h.01a2.88 2.88 0 012.88 2.88v.01zM87.49 8.46V4.4a2.58 2.58 0 10-5.16 0v19.77h5.17V13.39l12.15 1.41 3.74-4.4-15.9-1.94zm-25.05 0V4.4a2.58 2.58 0 10-5.16 0v19.77h5.17V13.39l12.16 1.41 3.74-4.4-15.91-1.94z"/><path class="cls-3" d="M121.93 9.23a2.584 2.584 0 015.05.97l-.99 4.44c-1.2 6.22-3.59 8.78-11.83 9.17l-3.54-4.56h1.16c7.75 0 8.7-1.2 9.43-5.54l.72-4.48z"/><path class="cls-1" d="M8.73 5.14l-2.38 3.4-2.23-1.39-.16-2.02 1.73-.89 3.04.9z"/><path class="cls-4" d="M1.03 3.78a4.14 4.14 0 014-2.72c1.46.13 2.81.84 3.73 1.98a1.292 1.292 0 01-1.2 1.91c-.62-.09-1.42-.96-2.47-.96-.95.07-1.67.9-1.6 1.86 0 .13.03.26.07.38.23 1.07 1.36 1.29 2.05 1.99a1.017 1.017 0 01-.49 1.8c-1.29.34-2.92-.97-3.6-1.95a4.374 4.374 0 01-.5-4.29zm33.68 8.24c.21.51.8.74 1.3.53.42-.18.67-.62.6-1.07-.35-.93-.75-1.84-1.2-2.72.98-.41 1.84-1.08 2.49-1.92.8-1.44.69-3.21-.28-4.53A3.14 3.14 0 0033.75.9a4.035 4.035 0 00-2.89 2.67c-.15 1.29 3.02 7 3.86 8.46z"/><path class="cls-4" d="M5.29 14.91C4.72 9.4 7.05 4.12 12.81 2.26 18.22.53 24.87 1.16 29.3 4.42c4.98 3.67 5.29 11.12 2.22 16.46-2.38 4.17-7.32 4.47-12.23 4.36-9.8 0-13.39-4.92-14-10.33z"/><path d="M33.21 4.26c0 .66.57 2.1 1.29 2.23 1.39.25 2-2.23 1.29-3.07-.65-.58-1.64-.53-2.22.11-.03.03-.06.07-.09.1-.15.17-.25.39-.27.62z" stroke="#5a3719" stroke-width="1.37" fill="#efc3d8"/><path class="cls-1" d="M18.94 15.91L17.7 17.2l-1.39.68.9 1.24 1.81.95 1.75-.95.83-1.33-1.49-.55-1.17-1.33z"/><path class="cls-3" d="M13.92 9.22c-1.45.37-1.63 3.22.49 2.16 1.74-.89.96-2.53-.49-2.16zm11.84 1.29c.19-1.15-1.7-1.96-2.34-1.07-.83 1.18 1.98 3.11 2.34 1.07zm-8.36 2.6c.12-.56 1.72-.46 2.08-.44.72.08 1.48.28.97 1.21-.23.43-.85 1.12-1.29 1.14s-1.86-1.33-1.76-1.91z"/><path class="cls-5" d="M19.24 14.5c-.21 1.47.62 2.89 2 3.43 1.36.42 2.81-.35 3.22-1.72.05-.15.08-.31.1-.46m-5.53-1.67c-.44 2.21-.79 3.14-2.29 3.76-1.29.52-2.18-.26-2.44-1.56"/><path class="cls-5" d="M16.34 17.56a3.425 3.425 0 002.67 2.16c1.21-.16 2.21-1 2.58-2.16"/></g></g></svg>